<?xml version="1.0" encoding="UTF-8" standalone="no"?>
<!-- Created with Inkscape (http://www.inkscape.org/) -->

<svg
   xmlns:dc="http://purl.org/dc/elements/1.1/"
   xmlns:cc="http://creativecommons.org/ns#"
   xmlns:rdf="http://www.w3.org/1999/02/22-rdf-syntax-ns#"
   xmlns:svg="http://www.w3.org/2000/svg"
   xmlns="http://www.w3.org/2000/svg"
   xmlns:sodipodi="http://sodipodi.sourceforge.net/DTD/sodipodi-0.dtd"
   xmlns:inkscape="http://www.inkscape.org/namespaces/inkscape"
   width="744.09448819"
   height="1052.3622047"
   id="svg2"
   version="1.1"
   inkscape:version="0.48.4 r9939"
   sodipodi:docname="ampa.svg">
  <defs
     id="defs4">
    <marker
       inkscape:stockid="SemiCircleIn"
       orient="auto"
       refY="0.0"
       refX="0.0"
       id="SemiCircleIn"
       style="overflow:visible">
      <path
         id="path4066"
         d="M -0.37450702,-0.045692580 C -0.37450702,2.7143074 1.8654930,4.9543074 4.6254930,4.9543074 L 4.6254930,-5.0456926 C 1.8654930,-5.0456926 -0.37450702,-2.8056926 -0.37450702,-0.045692580 z "
         style="fill-rule:evenodd;stroke:#000000;stroke-width:1.0pt"
         transform="scale(0.6)" />
    </marker>
    <marker
       inkscape:stockid="Arrow2Mend"
       orient="auto"
       refY="0.0"
       refX="0.0"
       id="Arrow2Mend"
       style="overflow:visible;">
      <path
         id="path3915"
         style="fill-rule:evenodd;stroke-width:0.62500000;stroke-linejoin:round;"
         d="M 8.7185878,4.0337352 L -2.2072895,0.016013256 L 8.7185884,-4.0017078 C 6.9730900,-1.6296469 6.9831476,1.6157441 8.7185878,4.0337352 z "
         transform="scale(0.6) rotate(180) translate(0,0)" />
    </marker>
    <marker
       inkscape:stockid="Arrow1Send"
       orient="auto"
       refY="0.0"
       refX="0.0"
       id="Arrow1Send"
       style="overflow:visible;">
      <path
         id="path4309"
         d="M 0.0,0.0 L 5.0,-5.0 L -12.5,0.0 L 5.0,5.0 L 0.0,0.0 z "
         style="fill-rule:evenodd;stroke:#000000;stroke-width:1.0pt;"
         transform="scale(0.2) rotate(180) translate(6,0)" />
    </marker>
    <marker
       inkscape:stockid="Arrow1Mstart"
       orient="auto"
       refY="0.0"
       refX="0.0"
       id="Arrow1Mstart"
       style="overflow:visible">
      <path
         id="path4300"
         d="M 0.0,0.0 L 5.0,-5.0 L -12.5,0.0 L 5.0,5.0 L 0.0,0.0 z "
         style="fill-rule:evenodd;stroke:#000000;stroke-width:1.0pt"
         transform="scale(0.4) translate(10,0)" />
    </marker>
    <marker
       inkscape:stockid="Arrow1Lend"
       orient="auto"
       refY="0.0"
       refX="0.0"
       id="Arrow1Lend"
       style="overflow:visible;">
      <path
         id="path4297"
         d="M 0.0,0.0 L 5.0,-5.0 L -12.5,0.0 L 5.0,5.0 L 0.0,0.0 z "
         style="fill-rule:evenodd;stroke:#000000;stroke-width:1.0pt;"
         transform="scale(0.8) rotate(180) translate(12.5,0)" />
    </marker>
    <marker
       inkscape:stockid="Arrow1Send"
       orient="auto"
       refY="0"
       refX="0"
       id="Arrow1Send-6"
       style="overflow:visible">
      <path
         inkscape:connector-curvature="0"
         id="path4309-2"
         d="M 0,0 5,-5 -12.5,0 5,5 0,0 z"
         style="fill-rule:evenodd;stroke:#000000;stroke-width:1pt"
         transform="matrix(-0.2,0,0,-0.2,-1.2,0)" />
    </marker>
  </defs>
  <sodipodi:namedview
     id="base"
     pagecolor="#ffffff"
     bordercolor="#666666"
     borderopacity="1.0"
     inkscape:pageopacity="0.0"
     inkscape:pageshadow="2"
     inkscape:zoom="7.9999999"
     inkscape:cx="163.45292"
     inkscape:cy="954.31858"
     inkscape:document-units="px"
     inkscape:current-layer="g5124"
     showgrid="false"
     inkscape:window-width="1855"
     inkscape:window-height="1056"
     inkscape:window-x="1985"
     inkscape:window-y="24"
     inkscape:window-maximized="1">
    <inkscape:grid
       type="xygrid"
       id="grid2985"
       empspacing="5"
       visible="true"
       enabled="true"
       snapvisiblegridlinesonly="true" />
  </sodipodi:namedview>
  <metadata
     id="metadata7">
    <rdf:RDF>
      <cc:Work
         rdf:about="">
        <dc:format>image/svg+xml</dc:format>
        <dc:type
           rdf:resource="http://purl.org/dc/dcmitype/StillImage" />
        <dc:title />
      </cc:Work>
    </rdf:RDF>
  </metadata>
  <g
     inkscape:label="Layer 1"
     inkscape:groupmode="layer"
     id="layer1">
    <path
       sodipodi:type="arc"
       style="fill:none;fill-rule:evenodd;stroke:#000000;stroke-width:1px;stroke-linecap:butt;stroke-linejoin:miter;stroke-opacity:1"
       id="path2987"
       sodipodi:cx="160"
       sodipodi:cy="162.36218"
       sodipodi:rx="70"
       sodipodi:ry="70"
       d="m 230,162.36218 a 70,70 0 1 1 -140,0 70,70 0 1 1 140,0 z"
       transform="matrix(0.95900284,0,0,0.94879876,-4.6011684,-62.668998)" />
    <path
       sodipodi:type="arc"
       style="fill:#d4aa00;stroke:#000000"
       id="path3003"
       sodipodi:cx="132.5"
       sodipodi:cy="77.362183"
       sodipodi:rx="12.5"
       sodipodi:ry="10"
       d="m 145,77.362183 a 12.5,10 0 1 1 -25,0 12.5,10 0 1 1 25,0 z"
       transform="matrix(0.99609672,0,0,1.2094066,-13.411388,-28.878725)" />
    <path
       sodipodi:type="arc"
       style="fill:#ffd42a;stroke:#000000"
       id="path3003-3"
       sodipodi:cx="132.5"
       sodipodi:cy="77.362183"
       sodipodi:rx="12.5"
       sodipodi:ry="10"
       d="m 145,77.362183 a 12.5,10 0 1 1 -25,0 12.5,10 0 1 1 25,0 z"
       transform="matrix(0.99609672,0,0,1.2094066,23.552901,-40.485838)" />
    <path
       sodipodi:type="arc"
       style="fill:#ffe680;stroke:#000000"
       id="path3003-3-6"
       sodipodi:cx="132.5"
       sodipodi:cy="77.362183"
       sodipodi:rx="12.5"
       sodipodi:ry="10"
       d="m 145,77.362183 a 12.5,10 0 1 1 -25,0 12.5,10 0 1 1 25,0 z"
       transform="matrix(0.99609672,0,0,1.2094066,54.088619,-20.128652)" />
    <path
       sodipodi:type="arc"
       style="fill:#b3b3b3;stroke:#000000"
       id="path3003-3-7"
       sodipodi:cx="132.5"
       sodipodi:cy="77.362183"
       sodipodi:rx="12.5"
       sodipodi:ry="10"
       d="m 145,77.362183 a 12.5,10 0 1 1 -25,0 12.5,10 0 1 1 25,0 z"
       transform="matrix(0.99609672,0,0,1.2094066,-20.73281,7.3713481)" />
    <path
       sodipodi:type="arc"
       style="fill:#999999;stroke:#000000"
       id="path3003-3-7-5"
       sodipodi:cx="132.5"
       sodipodi:cy="77.362183"
       sodipodi:rx="12.5"
       sodipodi:ry="10"
       d="m 145,77.362183 a 12.5,10 0 1 1 -25,0 12.5,10 0 1 1 25,0 z"
       transform="matrix(0.99609672,0,0,1.2094066,12.660047,34.514203)" />
    <path
       sodipodi:type="arc"
       style="fill:#999999;stroke:#000000"
       id="path3003-3-7-3"
       sodipodi:cx="132.5"
       sodipodi:cy="77.362183"
       sodipodi:rx="12.5"
       sodipodi:ry="10"
       d="m 145,77.362183 a 12.5,10 0 1 1 -25,0 12.5,10 0 1 1 25,0 z"
       transform="matrix(0.99609672,0,0,1.2094066,18.910047,-0.66436923)" />
    <path
       sodipodi:type="arc"
       style="fill:#999999;stroke:#000000"
       id="path3003-3-7-56"
       sodipodi:cx="132.5"
       sodipodi:cy="77.362183"
       sodipodi:rx="12.5"
       sodipodi:ry="10"
       d="m 145,77.362183 a 12.5,10 0 1 1 -25,0 12.5,10 0 1 1 25,0 z"
       transform="matrix(0.99609672,0,0,1.2094066,53.910047,21.121345)" />
    <text
       xml:space="preserve"
       style="font-size:12px;font-style:normal;font-weight:normal;line-height:125%;letter-spacing:0px;word-spacing:0px;fill:#000000;fill-opacity:1;stroke:none;font-family:Sans"
       x="114.125"
       y="68.799683"
       id="text3034"
       sodipodi:linespacing="125%"><tspan
         sodipodi:role="line"
         id="tspan3036"
         x="114.125"
         y="68.799683">1</tspan></text>
    <text
       xml:space="preserve"
       style="font-size:12px;font-style:normal;font-weight:normal;line-height:125%;letter-spacing:0px;word-spacing:0px;fill:#000000;fill-opacity:1;stroke:none;font-family:Sans"
       x="152.07715"
       y="57.111202"
       id="text3034-3"
       sodipodi:linespacing="125%"><tspan
         sodipodi:role="line"
         id="tspan3036-6"
         x="152.07715"
         y="57.111202">2</tspan></text>
    <text
       xml:space="preserve"
       style="font-size:12px;font-style:normal;font-weight:normal;line-height:125%;letter-spacing:0px;word-spacing:0px;fill:#000000;fill-opacity:1;stroke:none;font-family:Sans"
       x="182.66495"
       y="77.570091"
       id="text3034-7"
       sodipodi:linespacing="125%"><tspan
         sodipodi:role="line"
         id="tspan3036-5"
         x="182.66495"
         y="77.570091">3</tspan></text>
    <path
       style="fill:none;stroke:#0000ff;stroke-width:1px;stroke-linecap:butt;stroke-linejoin:miter;stroke-opacity:1"
       d="m 117.5,77.237181 c -0.875,1.5 -2.375,11.875 -2.375,11.875"
       id="path3068"
       inkscape:connector-curvature="0" />
    <g
       id="g4722"
       style="stroke:#0000ff;fill:#0000ff">
      <path
         style="font-size:medium;font-style:normal;font-variant:normal;font-weight:normal;font-stretch:normal;text-indent:0;text-align:start;text-decoration:none;line-height:normal;letter-spacing:normal;word-spacing:normal;text-transform:none;direction:ltr;block-progression:tb;writing-mode:lr-tb;text-anchor:start;baseline-shift:baseline;color:#000000;fill:none;stroke:#0000ff;stroke-width:1px;marker:none;visibility:visible;display:inline;overflow:visible;enable-background:accumulate;font-family:Sans;-inkscape-font-specification:Sans"
         d="m 140.78125,52.71875 -12.25,3.875 0.28125,0.96875 12.25,-3.875 -0.28125,-0.96875 z"
         id="path3070"
         inkscape:connector-curvature="0" />
      <path
         style="fill-rule:evenodd;stroke:none;stroke-width:0.59999999999999998pt;fill:#0000ff"
         d="m 140.07187,53.424231 c 0,1.656 1.344,3 3,3 l 0,-6 c -1.656,0 -3,1.344 -3,3 z"
         id="path4728"
         inkscape:connector-curvature="0" />
    </g>
    <path
       style="fill:none;stroke:#0000ff;stroke-width:1px;stroke-linecap:butt;stroke-linejoin:miter;stroke-opacity:1"
       d="m 123,76.362181 15,40.999999"
       id="path3078"
       inkscape:connector-curvature="0" />
    <path
       style="fill:none;stroke:#0000ff;stroke-width:1px;stroke-linecap:butt;stroke-linejoin:miter;stroke-opacity:1"
       d="m 127,73.987181 13.375,11.25 0,0"
       id="path3157"
       inkscape:connector-curvature="0" />
    <g
       id="g5124"
       style="stroke:#0000ff">
      <path
         style="fill-rule:evenodd;stroke:none;stroke-width:0.59999999999999998pt;fill:#0000ff"
         d="m 184.39457,99.71547 c -1.6497,0.14433 -2.87145,1.60035 -2.72712,3.25005 l 5.97717,-0.52293 c -0.14433,-1.6497 -1.60035,-2.87145 -3.25005,-2.72712 z"
         id="path5130"
         inkscape:connector-curvature="0" />
    </g>
    <path
       transform="matrix(0.95900284,0,0,0.94879876,145.39883,-62.668998)"
       d="m 230,162.36218 a 70,70 0 1 1 -140,0 70,70 0 1 1 140,0 z"
       sodipodi:ry="70"
       sodipodi:rx="70"
       sodipodi:cy="162.36218"
       sodipodi:cx="160"
       id="path3165"
       style="fill:none;stroke:#000000;stroke-width:1px;stroke-linecap:butt;stroke-linejoin:miter;stroke-opacity:1"
       sodipodi:type="arc" />
    <path
       transform="matrix(0.99609672,0,0,1.2094066,136.58861,-28.878725)"
       d="m 145,77.362183 a 12.5,10 0 1 1 -25,0 12.5,10 0 1 1 25,0 z"
       sodipodi:ry="10"
       sodipodi:rx="12.5"
       sodipodi:cy="77.362183"
       sodipodi:cx="132.5"
       id="path3167"
       style="fill:#d4aa00;stroke:#000000"
       sodipodi:type="arc" />
    <path
       transform="matrix(0.99609672,0,0,1.2094066,173.5529,-40.485838)"
       d="m 145,77.362183 a 12.5,10 0 1 1 -25,0 12.5,10 0 1 1 25,0 z"
       sodipodi:ry="10"
       sodipodi:rx="12.5"
       sodipodi:cy="77.362183"
       sodipodi:cx="132.5"
       id="path3169"
       style="fill:#ffd42a;stroke:#000000"
       sodipodi:type="arc" />
    <path
       transform="matrix(0.99609672,0,0,1.2094066,204.08862,-20.128652)"
       d="m 145,77.362183 a 12.5,10 0 1 1 -25,0 12.5,10 0 1 1 25,0 z"
       sodipodi:ry="10"
       sodipodi:rx="12.5"
       sodipodi:cy="77.362183"
       sodipodi:cx="132.5"
       id="path3171"
       style="fill:#ffe680;stroke:#000000"
       sodipodi:type="arc" />
    <path
       transform="matrix(0.99609672,0,0,1.2094066,129.26719,7.3713481)"
       d="m 145,77.362183 a 12.5,10 0 1 1 -25,0 12.5,10 0 1 1 25,0 z"
       sodipodi:ry="10"
       sodipodi:rx="12.5"
       sodipodi:cy="77.362183"
       sodipodi:cx="132.5"
       id="path3173"
       style="fill:#b3b3b3;stroke:#000000"
       sodipodi:type="arc" />
    <path
       transform="matrix(0.99609672,0,0,1.2094066,162.66005,34.514203)"
       d="m 145,77.362183 a 12.5,10 0 1 1 -25,0 12.5,10 0 1 1 25,0 z"
       sodipodi:ry="10"
       sodipodi:rx="12.5"
       sodipodi:cy="77.362183"
       sodipodi:cx="132.5"
       id="path3175"
       style="fill:#999999;stroke:#000000"
       sodipodi:type="arc" />
    <path
       transform="matrix(0.99609672,0,0,1.2094066,168.91005,-0.66436923)"
       d="m 145,77.362183 a 12.5,10 0 1 1 -25,0 12.5,10 0 1 1 25,0 z"
       sodipodi:ry="10"
       sodipodi:rx="12.5"
       sodipodi:cy="77.362183"
       sodipodi:cx="132.5"
       id="path3177"
       style="fill:#999999;stroke:#000000"
       sodipodi:type="arc" />
    <path
       transform="matrix(0.99609672,0,0,1.2094066,203.91005,21.121345)"
       d="m 145,77.362183 a 12.5,10 0 1 1 -25,0 12.5,10 0 1 1 25,0 z"
       sodipodi:ry="10"
       sodipodi:rx="12.5"
       sodipodi:cy="77.362183"
       sodipodi:cx="132.5"
       id="path3179"
       style="fill:#999999;stroke:#000000"
       sodipodi:type="arc" />
    <text
       sodipodi:linespacing="125%"
       id="text3181"
       y="68.799683"
       x="264.125"
       style="font-size:12px;font-style:normal;font-weight:normal;line-height:125%;letter-spacing:0px;word-spacing:0px;fill:#000000;fill-opacity:1;stroke:none;font-family:Sans"
       xml:space="preserve"><tspan
         y="68.799683"
         x="264.125"
         id="tspan3183"
         sodipodi:role="line">1</tspan></text>
    <text
       sodipodi:linespacing="125%"
       id="text3185"
       y="57.111202"
       x="302.07715"
       style="font-size:12px;font-style:normal;font-weight:normal;line-height:125%;letter-spacing:0px;word-spacing:0px;fill:#000000;fill-opacity:1;stroke:none;font-family:Sans"
       xml:space="preserve"><tspan
         y="57.111202"
         x="302.07715"
         id="tspan3187"
         sodipodi:role="line">2</tspan></text>
    <text
       sodipodi:linespacing="125%"
       id="text3189"
       y="77.570091"
       x="332.66495"
       style="font-size:12px;font-style:normal;font-weight:normal;line-height:125%;letter-spacing:0px;word-spacing:0px;fill:#000000;fill-opacity:1;stroke:none;font-family:Sans"
       xml:space="preserve"><tspan
         y="77.570091"
         x="332.66495"
         id="tspan3191"
         sodipodi:role="line">3</tspan></text>
    <path
       inkscape:connector-curvature="0"
       id="path3193"
       d="m 267.5,77.237181 c -0.875,1.5 -2.375,11.875 -2.375,11.875"
       style="fill:none;stroke:#0000ff;stroke-width:1px;stroke-linecap:butt;stroke-linejoin:miter;stroke-opacity:1" />
    <path
       inkscape:connector-curvature="0"
       id="path3195"
       d="m 280.875,60.862181 12.25,-3.875 0,0 0,0"
       style="fill:none;stroke:#0000ff;stroke-width:1px;stroke-linecap:butt;stroke-linejoin:miter;stroke-opacity:1" />
    <path
       inkscape:connector-curvature="0"
       id="path3197"
       d="m 281.625,64.737181 42,5.25"
       style="fill:none;stroke:#0000ff;stroke-width:1px;stroke-linecap:butt;stroke-linejoin:miter;stroke-opacity:1" />
    <path
       inkscape:connector-curvature="0"
       id="path3199"
       d="m 273,76.362181 15,40.999999"
       style="fill:none;stroke:#0000ff;stroke-width:1px;stroke-linecap:butt;stroke-linejoin:miter;stroke-opacity:1" />
    <path
       inkscape:connector-curvature="0"
       id="path3201"
       d="m 277,73.987181 13.375,11.25 0,0"
       style="fill:none;stroke:#0000ff;stroke-width:1px;stroke-linecap:butt;stroke-linejoin:miter;stroke-opacity:1" />
    <path
       inkscape:connector-curvature="0"
       id="path3203"
       d="m 281,68.737181 c 39.125,12.375 52.5,33.499999 52.5,33.499999 l 0,0"
       style="fill:none;stroke:#0000ff;stroke-width:1px;stroke-linecap:butt;stroke-linejoin:miter;stroke-opacity:1" />
    <path
       sodipodi:type="arc"
       style="fill:none;stroke:#000000;stroke-width:1px;stroke-linecap:butt;stroke-linejoin:miter;stroke-opacity:1"
       id="path3205"
       sodipodi:cx="160"
       sodipodi:cy="162.36218"
       sodipodi:rx="70"
       sodipodi:ry="70"
       d="m 230,162.36218 a 70,70 0 1 1 -140,0 70,70 0 1 1 140,0 z"
       transform="matrix(0.95900284,0,0,0.94879876,145.39883,87.331002)" />
    <path
       sodipodi:type="arc"
       style="fill:#d4aa00;stroke:#000000"
       id="path3207"
       sodipodi:cx="132.5"
       sodipodi:cy="77.362183"
       sodipodi:rx="12.5"
       sodipodi:ry="10"
       d="m 145,77.362183 a 12.5,10 0 1 1 -25,0 12.5,10 0 1 1 25,0 z"
       transform="matrix(0.99609672,0,0,1.2094066,136.58861,121.12127)" />
    <path
       sodipodi:type="arc"
       style="fill:#ffd42a;stroke:#000000"
       id="path3209"
       sodipodi:cx="132.5"
       sodipodi:cy="77.362183"
       sodipodi:rx="12.5"
       sodipodi:ry="10"
       d="m 145,77.362183 a 12.5,10 0 1 1 -25,0 12.5,10 0 1 1 25,0 z"
       transform="matrix(0.99609672,0,0,1.2094066,173.5529,109.51416)" />
    <path
       sodipodi:type="arc"
       style="fill:#ffe680;stroke:#000000"
       id="path3211"
       sodipodi:cx="132.5"
       sodipodi:cy="77.362183"
       sodipodi:rx="12.5"
       sodipodi:ry="10"
       d="m 145,77.362183 a 12.5,10 0 1 1 -25,0 12.5,10 0 1 1 25,0 z"
       transform="matrix(0.99609672,0,0,1.2094066,204.08862,129.87135)" />
    <path
       sodipodi:type="arc"
       style="fill:#b3b3b3;stroke:#000000"
       id="path3213"
       sodipodi:cx="132.5"
       sodipodi:cy="77.362183"
       sodipodi:rx="12.5"
       sodipodi:ry="10"
       d="m 145,77.362183 a 12.5,10 0 1 1 -25,0 12.5,10 0 1 1 25,0 z"
       transform="matrix(0.99609672,0,0,1.2094066,129.26719,157.37135)" />
    <path
       sodipodi:type="arc"
       style="fill:#999999;stroke:#000000"
       id="path3215"
       sodipodi:cx="132.5"
       sodipodi:cy="77.362183"
       sodipodi:rx="12.5"
       sodipodi:ry="10"
       d="m 145,77.362183 a 12.5,10 0 1 1 -25,0 12.5,10 0 1 1 25,0 z"
       transform="matrix(0.99609672,0,0,1.2094066,162.66005,184.5142)" />
    <path
       sodipodi:type="arc"
       style="fill:#999999;stroke:#000000"
       id="path3217"
       sodipodi:cx="132.5"
       sodipodi:cy="77.362183"
       sodipodi:rx="12.5"
       sodipodi:ry="10"
       d="m 145,77.362183 a 12.5,10 0 1 1 -25,0 12.5,10 0 1 1 25,0 z"
       transform="matrix(0.99609672,0,0,1.2094066,168.91005,149.33563)" />
    <path
       sodipodi:type="arc"
       style="fill:#999999;stroke:#000000"
       id="path3219"
       sodipodi:cx="132.5"
       sodipodi:cy="77.362183"
       sodipodi:rx="12.5"
       sodipodi:ry="10"
       d="m 145,77.362183 a 12.5,10 0 1 1 -25,0 12.5,10 0 1 1 25,0 z"
       transform="matrix(0.99609672,0,0,1.2094066,203.91005,171.12135)" />
    <text
       xml:space="preserve"
       style="font-size:12px;font-style:normal;font-weight:normal;line-height:125%;letter-spacing:0px;word-spacing:0px;fill:#000000;fill-opacity:1;stroke:none;font-family:Sans"
       x="264.125"
       y="218.79968"
       id="text3221"
       sodipodi:linespacing="125%"><tspan
         sodipodi:role="line"
         id="tspan3223"
         x="264.125"
         y="218.79968">1</tspan></text>
    <text
       xml:space="preserve"
       style="font-size:12px;font-style:normal;font-weight:normal;line-height:125%;letter-spacing:0px;word-spacing:0px;fill:#000000;fill-opacity:1;stroke:none;font-family:Sans"
       x="302.07715"
       y="207.11121"
       id="text3225"
       sodipodi:linespacing="125%"><tspan
         sodipodi:role="line"
         id="tspan3227"
         x="302.07715"
         y="207.11121">2</tspan></text>
    <text
       xml:space="preserve"
       style="font-size:12px;font-style:normal;font-weight:normal;line-height:125%;letter-spacing:0px;word-spacing:0px;fill:#000000;fill-opacity:1;stroke:none;font-family:Sans"
       x="332.66495"
       y="227.5701"
       id="text3229"
       sodipodi:linespacing="125%"><tspan
         sodipodi:role="line"
         id="tspan3231"
         x="332.66495"
         y="227.5701">3</tspan></text>
    <path
       style="fill:#ff0000;stroke:#0000ff;stroke-width:1px;stroke-linecap:butt;stroke-linejoin:miter;stroke-opacity:1"
       d="m 267.5,227.23718 c -0.875,1.5 -2.375,11.875 -2.375,11.875"
       id="path3233"
       inkscape:connector-curvature="0" />
    <path
       style="fill:#ff0000;stroke:#0000ff;stroke-width:1px;stroke-linecap:butt;stroke-linejoin:miter;stroke-opacity:1"
       d="m 280.875,210.86218 12.25,-3.875 0,0 0,0"
       id="path3235"
       inkscape:connector-curvature="0" />
    <path
       style="fill:#ff0000;stroke:#0000ff;stroke-width:1px;stroke-linecap:butt;stroke-linejoin:miter;stroke-opacity:1"
       d="m 281.625,214.73718 42,5.25"
       id="path3237"
       inkscape:connector-curvature="0" />
    <path
       style="fill:#ff0000;stroke:#0000ff;stroke-width:1px;stroke-linecap:butt;stroke-linejoin:miter;stroke-opacity:1"
       d="m 273,226.36218 15,41"
       id="path3239"
       inkscape:connector-curvature="0" />
    <path
       style="fill:#ff0000;stroke:#0000ff;stroke-width:1px;stroke-linecap:butt;stroke-linejoin:miter;stroke-opacity:1"
       d="m 277,223.98718 13.375,11.25 0,0"
       id="path3241"
       inkscape:connector-curvature="0" />
    <path
       style="fill:none;stroke:#0000ff;stroke-width:1px;stroke-linecap:butt;stroke-linejoin:miter;stroke-opacity:1"
       d="m 281,218.73718 c 39.125,12.375 52.5,33.5 52.5,33.5 l 0,0"
       id="path3243"
       inkscape:connector-curvature="0" />
    <path
       transform="matrix(0.95900284,0,0,0.94879876,-4.60117,87.331002)"
       d="m 230,162.36218 a 70,70 0 1 1 -140,0 70,70 0 1 1 140,0 z"
       sodipodi:ry="70"
       sodipodi:rx="70"
       sodipodi:cy="162.36218"
       sodipodi:cx="160"
       id="path3245"
       style="fill:none;stroke:#000000;stroke-width:1px;stroke-linecap:butt;stroke-linejoin:miter;stroke-opacity:1"
       sodipodi:type="arc" />
    <path
       transform="matrix(0.99609672,0,0,1.2094066,-13.41139,121.12127)"
       d="m 145,77.362183 a 12.5,10 0 1 1 -25,0 12.5,10 0 1 1 25,0 z"
       sodipodi:ry="10"
       sodipodi:rx="12.5"
       sodipodi:cy="77.362183"
       sodipodi:cx="132.5"
       id="path3247"
       style="fill:#d4aa00;stroke:#000000"
       sodipodi:type="arc" />
    <path
       transform="matrix(0.99609672,0,0,1.2094066,23.5529,109.51416)"
       d="m 145,77.362183 a 12.5,10 0 1 1 -25,0 12.5,10 0 1 1 25,0 z"
       sodipodi:ry="10"
       sodipodi:rx="12.5"
       sodipodi:cy="77.362183"
       sodipodi:cx="132.5"
       id="path3249"
       style="fill:#ffd42a;stroke:#000000"
       sodipodi:type="arc" />
    <path
       transform="matrix(0.99609672,0,0,1.2094066,54.08862,129.87135)"
       d="m 145,77.362183 a 12.5,10 0 1 1 -25,0 12.5,10 0 1 1 25,0 z"
       sodipodi:ry="10"
       sodipodi:rx="12.5"
       sodipodi:cy="77.362183"
       sodipodi:cx="132.5"
       id="path3251"
       style="fill:#ffe680;stroke:#000000"
       sodipodi:type="arc" />
    <path
       transform="matrix(0.99609672,0,0,1.2094066,-20.73281,157.37135)"
       d="m 145,77.362183 a 12.5,10 0 1 1 -25,0 12.5,10 0 1 1 25,0 z"
       sodipodi:ry="10"
       sodipodi:rx="12.5"
       sodipodi:cy="77.362183"
       sodipodi:cx="132.5"
       id="path3253"
       style="fill:#b3b3b3;stroke:#000000"
       sodipodi:type="arc" />
    <path
       transform="matrix(0.99609672,0,0,1.2094066,12.66005,184.5142)"
       d="m 145,77.362183 a 12.5,10 0 1 1 -25,0 12.5,10 0 1 1 25,0 z"
       sodipodi:ry="10"
       sodipodi:rx="12.5"
       sodipodi:cy="77.362183"
       sodipodi:cx="132.5"
       id="path3255"
       style="fill:#999999;stroke:#000000"
       sodipodi:type="arc" />
    <path
       transform="matrix(0.99609672,0,0,1.2094066,18.91005,149.33563)"
       d="m 145,77.362183 a 12.5,10 0 1 1 -25,0 12.5,10 0 1 1 25,0 z"
       sodipodi:ry="10"
       sodipodi:rx="12.5"
       sodipodi:cy="77.362183"
       sodipodi:cx="132.5"
       id="path3257"
       style="fill:#999999;stroke:#000000"
       sodipodi:type="arc" />
    <path
       transform="matrix(0.99609672,0,0,1.2094066,53.91005,171.12135)"
       d="m 145,77.362183 a 12.5,10 0 1 1 -25,0 12.5,10 0 1 1 25,0 z"
       sodipodi:ry="10"
       sodipodi:rx="12.5"
       sodipodi:cy="77.362183"
       sodipodi:cx="132.5"
       id="path3259"
       style="fill:#999999;stroke:#000000"
       sodipodi:type="arc" />
    <text
       sodipodi:linespacing="125%"
       id="text3261"
       y="218.79968"
       x="114.125"
       style="font-size:12px;font-style:normal;font-weight:normal;line-height:125%;letter-spacing:0px;word-spacing:0px;fill:#000000;fill-opacity:1;stroke:none;font-family:Sans"
       xml:space="preserve"><tspan
         y="218.79968"
         x="114.125"
         id="tspan3263"
         sodipodi:role="line">1</tspan></text>
    <text
       sodipodi:linespacing="125%"
       id="text3265"
       y="207.11121"
       x="152.07715"
       style="font-size:12px;font-style:normal;font-weight:normal;line-height:125%;letter-spacing:0px;word-spacing:0px;fill:#000000;fill-opacity:1;stroke:none;font-family:Sans"
       xml:space="preserve"><tspan
         y="207.11121"
         x="152.07715"
         id="tspan3267"
         sodipodi:role="line">2</tspan></text>
    <text
       sodipodi:linespacing="125%"
       id="text3269"
       y="227.5701"
       x="182.66495"
       style="font-size:12px;font-style:normal;font-weight:normal;line-height:125%;letter-spacing:0px;word-spacing:0px;fill:#000000;fill-opacity:1;stroke:none;font-family:Sans"
       xml:space="preserve"><tspan
         y="227.5701"
         x="182.66495"
         id="tspan3271"
         sodipodi:role="line">3</tspan></text>
    <path
       inkscape:connector-curvature="0"
       id="path3273"
       d="m 117.5,227.23718 c -0.875,1.5 -2.375,11.875 -2.375,11.875"
       style="fill:#ff0000;stroke:#0000ff;stroke-width:1px;stroke-linecap:butt;stroke-linejoin:miter;stroke-opacity:1" />
    <path
       inkscape:connector-curvature="0"
       id="path3275"
       d="m 130.875,210.86218 12.25,-3.875 0,0 0,0"
       style="fill:#ff0000;stroke:#0000ff;stroke-width:1px;stroke-linecap:butt;stroke-linejoin:miter;stroke-opacity:1" />
    <path
       inkscape:connector-curvature="0"
       id="path3277"
       d="m 131.625,214.73718 42,5.25"
       style="fill:#ff0000;stroke:#0000ff;stroke-width:1px;stroke-linecap:butt;stroke-linejoin:miter;stroke-opacity:1" />
    <path
       inkscape:connector-curvature="0"
       id="path3279"
       d="m 123,226.36218 15,41"
       style="fill:#ff0000;stroke:#0000ff;stroke-width:1px;stroke-linecap:butt;stroke-linejoin:miter;stroke-opacity:1" />
    <path
       inkscape:connector-curvature="0"
       id="path3281"
       d="m 127,223.98718 13.375,11.25 0,0"
       style="fill:#ff0000;stroke:#0000ff;stroke-width:1px;stroke-linecap:butt;stroke-linejoin:miter;stroke-opacity:1" />
    <path
       inkscape:connector-curvature="0"
       id="path3283"
       d="m 131,218.73718 c 39.125,12.375 52.5,33.5 52.5,33.5 l 0,0"
       style="fill:none;stroke:#0000ff;stroke-width:1px;stroke-linecap:butt;stroke-linejoin:miter;stroke-opacity:1" />
    <path
       style="fill:none;stroke:#ff0000;stroke-width:1px;stroke-linecap:butt;stroke-linejoin:miter;stroke-opacity:1"
       d="M 105.75,66.112182 C 56,137.36218 109,205.61218 109,205.61218 l 0,0 0,0"
       id="path3285"
       inkscape:connector-curvature="0" />
    <path
       style="fill:none;stroke:#ff0000;stroke-width:1.20297276999999991px;stroke-linecap:butt;stroke-linejoin:miter;stroke-opacity:1"
       d="m 119.10149,52.903973 c 96.32513,-101.003426 149.66087,-9.696116 146.04437,0.356723 l 0,0 0,0 0,0"
       id="path3291"
       inkscape:connector-curvature="0"
       sodipodi:nodetypes="ccccc" />
    <path
       style="fill:none;stroke:#ff0000;stroke-width:1px;stroke-linecap:butt;stroke-linejoin:miter;stroke-opacity:1"
       d="m 128.54647,71.812867 c 0,0 78.05552,18.689015 95.65491,51.257693 17.59939,32.56868 36.75215,81.59094 36.75215,81.59094"
       id="path3293"
       inkscape:connector-curvature="0"
       sodipodi:nodetypes="csc" />
    <rect
       style="fill:#0000ff;stroke:#0000ff"
       id="rect3295"
       width="20.75"
       height="9.25"
       x="12.5"
       y="40.612183" />
    <rect
       style="fill:#ff0000;stroke:#ff0000"
       id="rect3297"
       width="22.25"
       height="10.25"
       x="12"
       y="53.612183" />
    <text
       xml:space="preserve"
       style="font-size:40px;font-style:normal;font-weight:normal;line-height:125%;letter-spacing:0px;word-spacing:0px;fill:#000000;fill-opacity:1;stroke:none;font-family:Sans"
       x="36.982231"
       y="61.340107"
       id="text3299"
       sodipodi:linespacing="125%"><tspan
         sodipodi:role="line"
         id="tspan3301"
         x="36.982231"
         y="61.340107"
         style="font-size:10px">excitation</tspan></text>
    <text
       xml:space="preserve"
       style="font-size:40px;font-style:normal;font-weight:normal;line-height:125%;letter-spacing:0px;word-spacing:0px;fill:#000000;fill-opacity:1;stroke:none;font-family:Sans"
       x="38.233772"
       y="48.301628"
       id="text3299-3"
       sodipodi:linespacing="125%"><tspan
         sodipodi:role="line"
         id="tspan3301-5"
         x="38.233772"
         y="48.301628"
         style="font-size:10px">inhibition</tspan></text>
    <text
       xml:space="preserve"
       style="font-size:16px;font-style:normal;font-weight:normal;line-height:125%;letter-spacing:0px;word-spacing:0px;fill:#000000;fill-opacity:1;stroke:none;font-family:Sans"
       x="6.125"
       y="105.98718"
       id="text3324"
       sodipodi:linespacing="125%"><tspan
         sodipodi:role="line"
         id="tspan3326"
         x="6.125"
         y="105.98718">1</tspan></text>
    <text
       xml:space="preserve"
       style="font-size:40px;font-style:normal;font-weight:normal;line-height:125%;letter-spacing:0px;word-spacing:0px;fill:#000000;fill-opacity:1;stroke:none;font-family:Sans"
       x="38.5"
       y="94.737183"
       id="text3328"
       sodipodi:linespacing="125%"><tspan
         sodipodi:role="line"
         id="tspan3330" /></text>
    <text
       sodipodi:linespacing="125%"
       id="text3332"
       y="105.61218"
       x="59.125"
       style="font-size:16px;font-style:normal;font-weight:normal;line-height:125%;letter-spacing:0px;word-spacing:0px;fill:#000000;fill-opacity:1;stroke:none;font-family:Sans"
       xml:space="preserve"><tspan
         y="105.61218"
         x="59.125"
         id="tspan3334"
         sodipodi:role="line">3</tspan></text>
    <text
       xml:space="preserve"
       style="font-size:16px;font-style:normal;font-weight:normal;line-height:125%;letter-spacing:0px;word-spacing:0px;fill:#000000;fill-opacity:1;stroke:none;font-family:Sans"
       x="32.75"
       y="105.36218"
       id="text3336"
       sodipodi:linespacing="125%"><tspan
         sodipodi:role="line"
         id="tspan3338"
         x="32.75"
         y="105.36218">2</tspan></text>
    <path
       style="fill:none;stroke:#000000;stroke-width:1px;stroke-linecap:butt;stroke-linejoin:miter;stroke-opacity:1;marker-start:none;marker-end:url(#Arrow1Send)"
       d="M 15.25,99.98718 31.375,99.862181"
       id="path3340"
       inkscape:connector-curvature="0"
       sodipodi:nodetypes="cc" />
    <path
       style="fill:none;stroke:#000000;stroke-width:1px;stroke-linecap:butt;stroke-linejoin:miter;stroke-opacity:1;marker-start:none;marker-end:url(#Arrow1Send)"
       d="m 42.85002,99.59513 16.125,-0.125"
       id="path3340-9"
       inkscape:connector-curvature="0"
       sodipodi:nodetypes="cc" />
    <text
       xml:space="preserve"
       style="font-size:40px;font-style:normal;font-weight:normal;line-height:125%;letter-spacing:0px;word-spacing:0px;fill:#000000;fill-opacity:1;stroke:none;font-family:Sans"
       x="14.672465"
       y="87.338203"
       id="text5132"
       sodipodi:linespacing="125%"><tspan
         sodipodi:role="line"
         id="tspan5134"
         x="14.672465"
         y="87.338203"
         style="font-size:10px">sequence</tspan></text>
    <g
       id="g4924"
       style="stroke:#0000ff">
      <path
         style="font-size:medium;font-style:normal;font-variant:normal;font-weight:normal;font-stretch:normal;text-indent:0;text-align:start;text-decoration:none;line-height:normal;letter-spacing:normal;word-spacing:normal;text-transform:none;direction:ltr;block-progression:tb;writing-mode:lr-tb;text-anchor:start;baseline-shift:baseline;color:#000000;fill:#000000;fill-opacity:1;stroke:#0000ff;stroke-width:1;marker:none;visibility:visible;display:inline;overflow:visible;enable-background:accumulate;font-family:Sans;-inkscape-font-specification:Sans"
         d="m 131.75,63.125 -0.1875,1 39.21875,7.59375 L 171,70.75 131.75,63.125 z"
         id="path4730"
         inkscape:connector-curvature="0" />
      <path
         style="fill:#0000ff;fill-rule:evenodd;stroke:none"
         d="m 170.9259,71.160423 c -0.3149,1.625783 0.749,3.200834 2.37478,3.515738 l 1.14096,-5.890519 c -1.62579,-0.314904 -3.20084,0.748998 -3.51574,2.374781 z"
         id="path4930"
         inkscape:connector-curvature="0" />
    </g>
  </g>
</svg>
