<?xml version="1.0" encoding="UTF-8" standalone="no"?>
<!-- Created with Inkscape (http://www.inkscape.org/) -->

<svg
   xmlns:dc="http://purl.org/dc/elements/1.1/"
   xmlns:cc="http://creativecommons.org/ns#"
   xmlns:rdf="http://www.w3.org/1999/02/22-rdf-syntax-ns#"
   xmlns:svg="http://www.w3.org/2000/svg"
   xmlns="http://www.w3.org/2000/svg"
   xmlns:sodipodi="http://sodipodi.sourceforge.net/DTD/sodipodi-0.dtd"
   xmlns:inkscape="http://www.inkscape.org/namespaces/inkscape"
   width="744.09448819"
   height="1052.3622047"
   id="svg2"
   version="1.1"
   inkscape:version="0.48.4 r9939"
   sodipodi:docname="nmda.svg">
  <defs
     id="defs4">
    <marker
       inkscape:stockid="Arrow2Lend"
       orient="auto"
       refY="0.0"
       refX="0.0"
       id="Arrow2Lend"
       style="overflow:visible;">
      <path
         id="path4315"
         style="fill-rule:evenodd;stroke-width:0.62500000;stroke-linejoin:round;"
         d="M 8.7185878,4.0337352 L -2.2072895,0.016013256 L 8.7185884,-4.0017078 C 6.9730900,-1.6296469 6.9831476,1.6157441 8.7185878,4.0337352 z "
         transform="scale(1.1) rotate(180) translate(1,0)" />
    </marker>
    <marker
       inkscape:stockid="EmptyTriangleOutL"
       orient="auto"
       refY="0.0"
       refX="0.0"
       id="EmptyTriangleOutL"
       style="overflow:visible">
      <path
         id="path4454"
         d="M 5.77,0.0 L -2.88,5.0 L -2.88,-5.0 L 5.77,0.0 z "
         style="fill-rule:evenodd;fill:#FFFFFF;stroke:#000000;stroke-width:1.0pt"
         transform="scale(0.8) translate(-6,0)" />
    </marker>
    <marker
       inkscape:stockid="Arrow1Mend"
       orient="auto"
       refY="0.0"
       refX="0.0"
       id="Arrow1Mend"
       style="overflow:visible;">
      <path
         id="path4303"
         d="M 0.0,0.0 L 5.0,-5.0 L -12.5,0.0 L 5.0,5.0 L 0.0,0.0 z "
         style="fill-rule:evenodd;stroke:#000000;stroke-width:1.0pt;"
         transform="scale(0.4) rotate(180) translate(10,0)" />
    </marker>
    <marker
       inkscape:stockid="Arrow2Mend"
       orient="auto"
       refY="0.0"
       refX="0.0"
       id="Arrow2Mend"
       style="overflow:visible;">
      <path
         id="path4321"
         style="fill-rule:evenodd;stroke-width:0.62500000;stroke-linejoin:round;"
         d="M 8.7185878,4.0337352 L -2.2072895,0.016013256 L 8.7185884,-4.0017078 C 6.9730900,-1.6296469 6.9831476,1.6157441 8.7185878,4.0337352 z "
         transform="scale(0.6) rotate(180) translate(0,0)" />
    </marker>
    <marker
       inkscape:stockid="Arrow1Send"
       orient="auto"
       refY="0.0"
       refX="0.0"
       id="Arrow1Send"
       style="overflow:visible;">
      <path
         id="path4309"
         d="M 0.0,0.0 L 5.0,-5.0 L -12.5,0.0 L 5.0,5.0 L 0.0,0.0 z "
         style="fill-rule:evenodd;stroke:#000000;stroke-width:1.0pt;"
         transform="scale(0.2) rotate(180) translate(6,0)" />
    </marker>
    <marker
       inkscape:stockid="Arrow1Mstart"
       orient="auto"
       refY="0.0"
       refX="0.0"
       id="Arrow1Mstart"
       style="overflow:visible">
      <path
         id="path4300"
         d="M 0.0,0.0 L 5.0,-5.0 L -12.5,0.0 L 5.0,5.0 L 0.0,0.0 z "
         style="fill-rule:evenodd;stroke:#000000;stroke-width:1.0pt"
         transform="scale(0.4) translate(10,0)" />
    </marker>
    <marker
       inkscape:stockid="Arrow1Lend"
       orient="auto"
       refY="0.0"
       refX="0.0"
       id="Arrow1Lend"
       style="overflow:visible;">
      <path
         id="path4297"
         d="M 0.0,0.0 L 5.0,-5.0 L -12.5,0.0 L 5.0,5.0 L 0.0,0.0 z "
         style="fill-rule:evenodd;stroke:#000000;stroke-width:1.0pt;"
         transform="scale(0.8) rotate(180) translate(12.5,0)" />
    </marker>
    <marker
       inkscape:stockid="Arrow1Send"
       orient="auto"
       refY="0"
       refX="0"
       id="Arrow1Send-6"
       style="overflow:visible">
      <path
         inkscape:connector-curvature="0"
         id="path4309-2"
         d="M 0,0 5,-5 -12.5,0 5,5 0,0 z"
         style="fill-rule:evenodd;stroke:#000000;stroke-width:1pt"
         transform="matrix(-0.2,0,0,-0.2,-1.2,0)" />
    </marker>
  </defs>
  <sodipodi:namedview
     id="base"
     pagecolor="#ffffff"
     bordercolor="#666666"
     borderopacity="1.0"
     inkscape:pageopacity="0.0"
     inkscape:pageshadow="2"
     inkscape:zoom="2"
     inkscape:cx="260.71551"
     inkscape:cy="897.28147"
     inkscape:document-units="px"
     inkscape:current-layer="layer1"
     showgrid="false"
     inkscape:window-width="1855"
     inkscape:window-height="1056"
     inkscape:window-x="1985"
     inkscape:window-y="24"
     inkscape:window-maximized="1">
    <inkscape:grid
       type="xygrid"
       id="grid2985"
       empspacing="5"
       visible="true"
       enabled="true"
       snapvisiblegridlinesonly="true" />
  </sodipodi:namedview>
  <metadata
     id="metadata7">
    <rdf:RDF>
      <cc:Work
         rdf:about="">
        <dc:format>image/svg+xml</dc:format>
        <dc:type
           rdf:resource="http://purl.org/dc/dcmitype/StillImage" />
        <dc:title />
      </cc:Work>
    </rdf:RDF>
  </metadata>
  <g
     inkscape:label="Layer 1"
     inkscape:groupmode="layer"
     id="layer1">
    <path
       sodipodi:type="arc"
       style="fill:none;fill-rule:evenodd;stroke:#000000;stroke-width:1px;stroke-linecap:butt;stroke-linejoin:miter;stroke-opacity:1"
       id="path2987"
       sodipodi:cx="160"
       sodipodi:cy="162.36218"
       sodipodi:rx="70"
       sodipodi:ry="70"
       d="m 230,162.36218 a 70,70 0 1 1 -140,0 70,70 0 1 1 140,0 z"
       transform="matrix(0.95900284,0,0,0.94879876,-4.6011684,-62.668998)" />
    <path
       sodipodi:type="arc"
       style="fill:#d4aa00;stroke:#000000"
       id="path3003"
       sodipodi:cx="132.5"
       sodipodi:cy="77.362183"
       sodipodi:rx="12.5"
       sodipodi:ry="10"
       d="m 145,77.362183 a 12.5,10 0 1 1 -25,0 12.5,10 0 1 1 25,0 z"
       transform="matrix(0.99609672,0,0,1.2094066,-13.411388,-28.878725)" />
    <path
       sodipodi:type="arc"
       style="fill:#ffd42a;stroke:#000000"
       id="path3003-3"
       sodipodi:cx="132.5"
       sodipodi:cy="77.362183"
       sodipodi:rx="12.5"
       sodipodi:ry="10"
       d="m 145,77.362183 a 12.5,10 0 1 1 -25,0 12.5,10 0 1 1 25,0 z"
       transform="matrix(0.99609672,0,0,1.2094066,23.552901,-40.485838)" />
    <path
       sodipodi:type="arc"
       style="fill:#ffe680;stroke:#000000"
       id="path3003-3-6"
       sodipodi:cx="132.5"
       sodipodi:cy="77.362183"
       sodipodi:rx="12.5"
       sodipodi:ry="10"
       d="m 145,77.362183 a 12.5,10 0 1 1 -25,0 12.5,10 0 1 1 25,0 z"
       transform="matrix(0.99609672,0,0,1.2094066,54.088619,-20.128652)" />
    <path
       sodipodi:type="arc"
       style="fill:#b3b3b3;stroke:#000000"
       id="path3003-3-7"
       sodipodi:cx="132.5"
       sodipodi:cy="77.362183"
       sodipodi:rx="12.5"
       sodipodi:ry="10"
       d="m 145,77.362183 a 12.5,10 0 1 1 -25,0 12.5,10 0 1 1 25,0 z"
       transform="matrix(0.99609672,0,0,1.2094066,-20.73281,7.3713481)" />
    <path
       sodipodi:type="arc"
       style="fill:#999999;stroke:#000000"
       id="path3003-3-7-5"
       sodipodi:cx="132.5"
       sodipodi:cy="77.362183"
       sodipodi:rx="12.5"
       sodipodi:ry="10"
       d="m 145,77.362183 a 12.5,10 0 1 1 -25,0 12.5,10 0 1 1 25,0 z"
       transform="matrix(0.99609672,0,0,1.2094066,12.660047,34.514203)" />
    <path
       sodipodi:type="arc"
       style="fill:#999999;stroke:#000000"
       id="path3003-3-7-3"
       sodipodi:cx="132.5"
       sodipodi:cy="77.362183"
       sodipodi:rx="12.5"
       sodipodi:ry="10"
       d="m 145,77.362183 a 12.5,10 0 1 1 -25,0 12.5,10 0 1 1 25,0 z"
       transform="matrix(0.99609672,0,0,1.2094066,18.910047,-0.66436923)" />
    <path
       sodipodi:type="arc"
       style="fill:#999999;stroke:#000000"
       id="path3003-3-7-56"
       sodipodi:cx="132.5"
       sodipodi:cy="77.362183"
       sodipodi:rx="12.5"
       sodipodi:ry="10"
       d="m 145,77.362183 a 12.5,10 0 1 1 -25,0 12.5,10 0 1 1 25,0 z"
       transform="matrix(0.99609672,0,0,1.2094066,53.910047,21.121345)" />
    <text
       xml:space="preserve"
       style="font-size:12px;font-style:normal;font-weight:normal;line-height:125%;letter-spacing:0px;word-spacing:0px;fill:#000000;fill-opacity:1;stroke:none;font-family:Sans"
       x="114.125"
       y="68.799683"
       id="text3034"
       sodipodi:linespacing="125%"><tspan
         sodipodi:role="line"
         id="tspan3036"
         x="114.125"
         y="68.799683">1</tspan></text>
    <text
       xml:space="preserve"
       style="font-size:12px;font-style:normal;font-weight:normal;line-height:125%;letter-spacing:0px;word-spacing:0px;fill:#000000;fill-opacity:1;stroke:none;font-family:Sans"
       x="151.07715"
       y="57.611202"
       id="text3034-3"
       sodipodi:linespacing="125%"><tspan
         sodipodi:role="line"
         id="tspan3036-6"
         x="151.07715"
         y="57.611202">2</tspan></text>
    <text
       xml:space="preserve"
       style="font-size:12px;font-style:normal;font-weight:normal;line-height:125%;letter-spacing:0px;word-spacing:0px;fill:#000000;fill-opacity:1;stroke:none;font-family:Sans"
       x="182.66495"
       y="77.570091"
       id="text3034-7"
       sodipodi:linespacing="125%"><tspan
         sodipodi:role="line"
         id="tspan3036-5"
         x="182.66495"
         y="77.570091">3</tspan></text>
    <path
       style="fill:#ff0000;stroke:#ff0000;stroke-width:1px;stroke-linecap:butt;stroke-linejoin:miter;stroke-opacity:1"
       d="m 117.5,77.237181 c -0.875,1.5 -2.375,11.875 -2.375,11.875"
       id="path3068"
       inkscape:connector-curvature="0" />
    <path
       style="fill:#ff0000;stroke:#ff0000;stroke-width:1px;stroke-linecap:butt;stroke-linejoin:miter;stroke-opacity:1"
       d="m 123,76.362181 15,40.999999"
       id="path3078"
       inkscape:connector-curvature="0" />
    <path
       style="fill:#ff0000;stroke:#ff0000;stroke-width:1px;stroke-linecap:butt;stroke-linejoin:miter;stroke-opacity:1"
       d="m 127,73.987181 13.375,11.25 0,0"
       id="path3157"
       inkscape:connector-curvature="0" />
    <path
       style="fill:none;stroke:#ff0000;stroke-width:1px;stroke-linecap:butt;stroke-linejoin:miter;stroke-opacity:1"
       d="m 131,68.737181 c 39.125,12.375 52.5,33.499999 52.5,33.499999 l 0,0"
       id="path3163"
       inkscape:connector-curvature="0" />
    <path
       style="fill:none;stroke:#0000ff;stroke-width:1;stroke-linecap:butt;stroke-linejoin:miter;stroke-opacity:1;stroke-miterlimit:4;stroke-dasharray:1,1;stroke-dashoffset:0"
       d="M 105.75,66.112182 C 56,137.36218 109,205.61218 109,205.61218 l 0,0 0,0"
       id="path3285"
       inkscape:connector-curvature="0" />
    <path
       style="fill:none;stroke:#0000ff;stroke-width:1;stroke-linecap:butt;stroke-linejoin:miter;stroke-opacity:1;stroke-miterlimit:4;stroke-dasharray:1,1;stroke-dashoffset:0"
       d="m 128.54647,71.812867 c 0,0 78.05552,18.689015 95.65491,51.257693 17.59939,32.56868 36.75215,81.59094 36.75215,81.59094"
       id="path3293"
       inkscape:connector-curvature="0"
       sodipodi:nodetypes="csc" />
    <rect
       style="fill:#0000ff;stroke:#0000ff"
       id="rect3295"
       width="20.75"
       height="9.25"
       x="12.5"
       y="40.612183" />
    <rect
       style="fill:#ff0000;stroke:#ff0000"
       id="rect3297"
       width="22.25"
       height="10.25"
       x="12"
       y="53.612183" />
    <text
       xml:space="preserve"
       style="font-size:40px;font-style:normal;font-weight:normal;line-height:125%;letter-spacing:0px;word-spacing:0px;fill:#000000;fill-opacity:1;stroke:none;font-family:Sans"
       x="38.75"
       y="48.612183"
       id="text3299"
       sodipodi:linespacing="125%"><tspan
         sodipodi:role="line"
         id="tspan3301"
         x="38.75"
         y="48.612183"
         style="font-size:10px">excitation</tspan></text>
    <text
       xml:space="preserve"
       style="font-size:40px;font-style:normal;font-weight:normal;line-height:125%;letter-spacing:0px;word-spacing:0px;fill:#000000;fill-opacity:1;stroke:none;font-family:Sans"
       x="39.294434"
       y="62.09021"
       id="text3299-3"
       sodipodi:linespacing="125%"><tspan
         sodipodi:role="line"
         id="tspan3301-5"
         x="39.294434"
         y="62.09021"
         style="font-size:10px">inhibition</tspan></text>
    <text
       xml:space="preserve"
       style="font-size:16px;font-style:normal;font-weight:normal;line-height:125%;letter-spacing:0px;word-spacing:0px;fill:#000000;fill-opacity:1;stroke:none;font-family:Sans"
       x="7.625"
       y="118.48718"
       id="text3324"
       sodipodi:linespacing="125%"><tspan
         sodipodi:role="line"
         id="tspan3326"
         x="7.625"
         y="118.48718">1</tspan></text>
    <text
       xml:space="preserve"
       style="font-size:40px;font-style:normal;font-weight:normal;line-height:125%;letter-spacing:0px;word-spacing:0px;fill:#000000;fill-opacity:1;stroke:none;font-family:Sans"
       x="38.5"
       y="94.737183"
       id="text3328"
       sodipodi:linespacing="125%"><tspan
         sodipodi:role="line"
         id="tspan3330" /></text>
    <text
       sodipodi:linespacing="125%"
       id="text3332"
       y="118.11218"
       x="60.625"
       style="font-size:16px;font-style:normal;font-weight:normal;line-height:125%;letter-spacing:0px;word-spacing:0px;fill:#000000;fill-opacity:1;stroke:none;font-family:Sans"
       xml:space="preserve"><tspan
         y="118.11218"
         x="60.625"
         id="tspan3334"
         sodipodi:role="line">3</tspan></text>
    <text
       xml:space="preserve"
       style="font-size:16px;font-style:normal;font-weight:normal;line-height:125%;letter-spacing:0px;word-spacing:0px;fill:#000000;fill-opacity:1;stroke:none;font-family:Sans"
       x="34.25"
       y="117.86218"
       id="text3336"
       sodipodi:linespacing="125%"><tspan
         sodipodi:role="line"
         id="tspan3338"
         x="34.25"
         y="117.86218">2</tspan></text>
    <path
       style="fill:none;stroke:#000000;stroke-width:1px;stroke-linecap:butt;stroke-linejoin:miter;stroke-opacity:1;marker-start:none;marker-end:url(#Arrow1Send)"
       d="m 16.75,112.48718 16.125,-0.125"
       id="path3340"
       inkscape:connector-curvature="0"
       sodipodi:nodetypes="cc" />
    <path
       style="fill:none;stroke:#000000;stroke-width:1px;stroke-linecap:butt;stroke-linejoin:miter;stroke-opacity:1;marker-start:none;marker-end:url(#Arrow1Send)"
       d="m 44.35002,112.09513 16.125,-0.125"
       id="path3340-9"
       inkscape:connector-curvature="0"
       sodipodi:nodetypes="cc" />
    <text
       xml:space="preserve"
       style="font-size:40px;font-style:normal;font-weight:normal;line-height:125%;letter-spacing:0px;word-spacing:0px;fill:#000000;fill-opacity:1;stroke:none;font-family:Sans"
       x="14.672465"
       y="87.338203"
       id="text5132"
       sodipodi:linespacing="125%"><tspan
         sodipodi:role="line"
         id="tspan5134"
         x="14.672465"
         y="87.338203"
         style="font-size:10px">sequence</tspan></text>
    <path
       style="fill:none;stroke:#0000ff;stroke-width:3.2;stroke-linecap:butt;stroke-linejoin:miter;stroke-miterlimit:4;stroke-opacity:1;stroke-dasharray:none"
       d="m 130.5,62.362183 13.5,-6.5"
       id="path3099"
       inkscape:connector-curvature="0" />
    <path
       style="fill:none;stroke:#0000ff;stroke-width:1.5;stroke-linecap:butt;stroke-linejoin:miter;stroke-miterlimit:4;stroke-opacity:1;stroke-dasharray:none"
       d="m 126,54.862183 c 37,-29 43.06875,-18.711053 43.06875,-18.711053 l 15.75657,25.657205 0.67468,-0.446152 0,0 -0.5,0"
       id="path3921"
       inkscape:connector-curvature="0"
       sodipodi:nodetypes="cccccc" />
    <path
       transform="matrix(0.95900284,0,0,0.94879876,145.39883,-62.668998)"
       d="m 230,162.36218 a 70,70 0 1 1 -140,0 70,70 0 1 1 140,0 z"
       sodipodi:ry="70"
       sodipodi:rx="70"
       sodipodi:cy="162.36218"
       sodipodi:cx="160"
       id="path3923"
       style="fill:none;stroke:#000000;stroke-width:1px;stroke-linecap:butt;stroke-linejoin:miter;stroke-opacity:1"
       sodipodi:type="arc" />
    <path
       transform="matrix(0.99609672,0,0,1.2094066,136.58861,-28.878725)"
       d="m 145,77.362183 a 12.5,10 0 1 1 -25,0 12.5,10 0 1 1 25,0 z"
       sodipodi:ry="10"
       sodipodi:rx="12.5"
       sodipodi:cy="77.362183"
       sodipodi:cx="132.5"
       id="path3925"
       style="fill:#d4aa00;stroke:#000000"
       sodipodi:type="arc" />
    <path
       transform="matrix(0.99609672,0,0,1.2094066,173.5529,-40.485838)"
       d="m 145,77.362183 a 12.5,10 0 1 1 -25,0 12.5,10 0 1 1 25,0 z"
       sodipodi:ry="10"
       sodipodi:rx="12.5"
       sodipodi:cy="77.362183"
       sodipodi:cx="132.5"
       id="path3927"
       style="fill:#ffd42a;stroke:#000000"
       sodipodi:type="arc" />
    <path
       transform="matrix(0.99609672,0,0,1.2094066,204.08862,-20.128652)"
       d="m 145,77.362183 a 12.5,10 0 1 1 -25,0 12.5,10 0 1 1 25,0 z"
       sodipodi:ry="10"
       sodipodi:rx="12.5"
       sodipodi:cy="77.362183"
       sodipodi:cx="132.5"
       id="path3929"
       style="fill:#ffe680;stroke:#000000"
       sodipodi:type="arc" />
    <path
       transform="matrix(0.99609672,0,0,1.2094066,129.26719,7.3713481)"
       d="m 145,77.362183 a 12.5,10 0 1 1 -25,0 12.5,10 0 1 1 25,0 z"
       sodipodi:ry="10"
       sodipodi:rx="12.5"
       sodipodi:cy="77.362183"
       sodipodi:cx="132.5"
       id="path3931"
       style="fill:#b3b3b3;stroke:#000000"
       sodipodi:type="arc" />
    <path
       transform="matrix(0.99609672,0,0,1.2094066,162.66005,34.514203)"
       d="m 145,77.362183 a 12.5,10 0 1 1 -25,0 12.5,10 0 1 1 25,0 z"
       sodipodi:ry="10"
       sodipodi:rx="12.5"
       sodipodi:cy="77.362183"
       sodipodi:cx="132.5"
       id="path3933"
       style="fill:#999999;stroke:#000000"
       sodipodi:type="arc" />
    <path
       transform="matrix(0.99609672,0,0,1.2094066,168.91005,-0.66436923)"
       d="m 145,77.362183 a 12.5,10 0 1 1 -25,0 12.5,10 0 1 1 25,0 z"
       sodipodi:ry="10"
       sodipodi:rx="12.5"
       sodipodi:cy="77.362183"
       sodipodi:cx="132.5"
       id="path3935"
       style="fill:#999999;stroke:#000000"
       sodipodi:type="arc" />
    <path
       transform="matrix(0.99609672,0,0,1.2094066,203.91005,21.121345)"
       d="m 145,77.362183 a 12.5,10 0 1 1 -25,0 12.5,10 0 1 1 25,0 z"
       sodipodi:ry="10"
       sodipodi:rx="12.5"
       sodipodi:cy="77.362183"
       sodipodi:cx="132.5"
       id="path3937"
       style="fill:#999999;stroke:#000000"
       sodipodi:type="arc" />
    <text
       sodipodi:linespacing="125%"
       id="text3939"
       y="68.799683"
       x="264.125"
       style="font-size:12px;font-style:normal;font-weight:normal;line-height:125%;letter-spacing:0px;word-spacing:0px;fill:#000000;fill-opacity:1;stroke:none;font-family:Sans"
       xml:space="preserve"><tspan
         y="68.799683"
         x="264.125"
         id="tspan3941"
         sodipodi:role="line">1</tspan></text>
    <text
       sodipodi:linespacing="125%"
       id="text3943"
       y="57.111202"
       x="302.07715"
       style="font-size:12px;font-style:normal;font-weight:normal;line-height:125%;letter-spacing:0px;word-spacing:0px;fill:#000000;fill-opacity:1;stroke:none;font-family:Sans"
       xml:space="preserve"><tspan
         y="57.111202"
         x="302.07715"
         id="tspan3945"
         sodipodi:role="line">2</tspan></text>
    <text
       sodipodi:linespacing="125%"
       id="text3947"
       y="77.570091"
       x="332.66495"
       style="font-size:12px;font-style:normal;font-weight:normal;line-height:125%;letter-spacing:0px;word-spacing:0px;fill:#000000;fill-opacity:1;stroke:none;font-family:Sans"
       xml:space="preserve"><tspan
         y="77.570091"
         x="332.66495"
         id="tspan3949"
         sodipodi:role="line">3</tspan></text>
    <path
       inkscape:connector-curvature="0"
       id="path3951"
       d="m 267.5,77.237181 c -0.875,1.5 -2.375,11.875 -2.375,11.875"
       style="fill:#ff0000;stroke:#ff0000;stroke-width:1px;stroke-linecap:butt;stroke-linejoin:miter;stroke-opacity:1" />
    <path
       inkscape:connector-curvature="0"
       id="path3953"
       d="m 273,76.362181 15,40.999999"
       style="fill:#ff0000;stroke:#ff0000;stroke-width:1px;stroke-linecap:butt;stroke-linejoin:miter;stroke-opacity:1" />
    <path
       inkscape:connector-curvature="0"
       id="path3955"
       d="m 277,73.987181 13.375,11.25 0,0"
       style="fill:#ff0000;stroke:#ff0000;stroke-width:1px;stroke-linecap:butt;stroke-linejoin:miter;stroke-opacity:1" />
    <path
       inkscape:connector-curvature="0"
       id="path3957"
       d="m 281,68.737181 c 39.125,12.375 52.5,33.499999 52.5,33.499999 l 0,0"
       style="fill:none;stroke:#ff0000;stroke-width:1px;stroke-linecap:butt;stroke-linejoin:miter;stroke-opacity:1" />
    <path
       inkscape:connector-curvature="0"
       id="path3959"
       d="m 280.5,62.362183 13.5,-6.5"
       style="fill:#0000ff;stroke:#0000ff;stroke-width:3.79999995;stroke-linecap:butt;stroke-linejoin:miter;stroke-miterlimit:4;stroke-opacity:1;stroke-dasharray:none" />
    <path
       sodipodi:nodetypes="cccccc"
       inkscape:connector-curvature="0"
       id="path3961"
       d="m 276,54.862183 c 37,-29 43.06875,-18.711053 43.06875,-18.711053 l 15.75657,25.657205 0.67468,-0.446152 0,0 -0.5,0"
       style="fill:none;stroke:#0000ff;stroke-width:1.70000005;stroke-linecap:butt;stroke-linejoin:miter;stroke-miterlimit:4;stroke-opacity:1;stroke-dasharray:none" />
    <path
       sodipodi:type="arc"
       style="fill:none;stroke:#000000;stroke-width:1px;stroke-linecap:butt;stroke-linejoin:miter;stroke-opacity:1"
       id="path4001"
       sodipodi:cx="160"
       sodipodi:cy="162.36218"
       sodipodi:rx="70"
       sodipodi:ry="70"
       d="m 230,162.36218 a 70,70 0 1 1 -140,0 70,70 0 1 1 140,0 z"
       transform="matrix(0.95900284,0,0,0.94879876,145.39883,87.331002)" />
    <path
       sodipodi:type="arc"
       style="fill:#d4aa00;stroke:#000000"
       id="path4003"
       sodipodi:cx="132.5"
       sodipodi:cy="77.362183"
       sodipodi:rx="12.5"
       sodipodi:ry="10"
       d="m 145,77.362183 a 12.5,10 0 1 1 -25,0 12.5,10 0 1 1 25,0 z"
       transform="matrix(0.99609672,0,0,1.2094066,136.58861,121.12127)" />
    <path
       sodipodi:type="arc"
       style="fill:#ffd42a;stroke:#000000"
       id="path4005"
       sodipodi:cx="132.5"
       sodipodi:cy="77.362183"
       sodipodi:rx="12.5"
       sodipodi:ry="10"
       d="m 145,77.362183 a 12.5,10 0 1 1 -25,0 12.5,10 0 1 1 25,0 z"
       transform="matrix(0.99609672,0,0,1.2094066,173.5529,109.51416)" />
    <path
       sodipodi:type="arc"
       style="fill:#ffe680;stroke:#000000"
       id="path4007"
       sodipodi:cx="132.5"
       sodipodi:cy="77.362183"
       sodipodi:rx="12.5"
       sodipodi:ry="10"
       d="m 145,77.362183 a 12.5,10 0 1 1 -25,0 12.5,10 0 1 1 25,0 z"
       transform="matrix(0.99609672,0,0,1.2094066,204.08862,129.87135)" />
    <path
       sodipodi:type="arc"
       style="fill:#b3b3b3;stroke:#000000"
       id="path4009"
       sodipodi:cx="132.5"
       sodipodi:cy="77.362183"
       sodipodi:rx="12.5"
       sodipodi:ry="10"
       d="m 145,77.362183 a 12.5,10 0 1 1 -25,0 12.5,10 0 1 1 25,0 z"
       transform="matrix(0.99609672,0,0,1.2094066,129.26719,157.37135)" />
    <path
       sodipodi:type="arc"
       style="fill:#999999;stroke:#000000"
       id="path4011"
       sodipodi:cx="132.5"
       sodipodi:cy="77.362183"
       sodipodi:rx="12.5"
       sodipodi:ry="10"
       d="m 145,77.362183 a 12.5,10 0 1 1 -25,0 12.5,10 0 1 1 25,0 z"
       transform="matrix(0.99609672,0,0,1.2094066,162.66005,184.5142)" />
    <path
       sodipodi:type="arc"
       style="fill:#999999;stroke:#000000"
       id="path4013"
       sodipodi:cx="132.5"
       sodipodi:cy="77.362183"
       sodipodi:rx="12.5"
       sodipodi:ry="10"
       d="m 145,77.362183 a 12.5,10 0 1 1 -25,0 12.5,10 0 1 1 25,0 z"
       transform="matrix(0.99609672,0,0,1.2094066,168.91005,149.33563)" />
    <path
       sodipodi:type="arc"
       style="fill:#999999;stroke:#000000"
       id="path4015"
       sodipodi:cx="132.5"
       sodipodi:cy="77.362183"
       sodipodi:rx="12.5"
       sodipodi:ry="10"
       d="m 145,77.362183 a 12.5,10 0 1 1 -25,0 12.5,10 0 1 1 25,0 z"
       transform="matrix(0.99609672,0,0,1.2094066,203.91005,171.12135)" />
    <text
       xml:space="preserve"
       style="font-size:12px;font-style:normal;font-weight:normal;line-height:125%;letter-spacing:0px;word-spacing:0px;fill:#000000;fill-opacity:1;stroke:none;font-family:Sans"
       x="264.125"
       y="218.79968"
       id="text4017"
       sodipodi:linespacing="125%"><tspan
         sodipodi:role="line"
         id="tspan4019"
         x="264.125"
         y="218.79968">1</tspan></text>
    <text
       xml:space="preserve"
       style="font-size:12px;font-style:normal;font-weight:normal;line-height:125%;letter-spacing:0px;word-spacing:0px;fill:#000000;fill-opacity:1;stroke:none;font-family:Sans"
       x="302.07715"
       y="207.11121"
       id="text4021"
       sodipodi:linespacing="125%"><tspan
         sodipodi:role="line"
         id="tspan4023"
         x="302.07715"
         y="207.11121">2</tspan></text>
    <text
       xml:space="preserve"
       style="font-size:12px;font-style:normal;font-weight:normal;line-height:125%;letter-spacing:0px;word-spacing:0px;fill:#000000;fill-opacity:1;stroke:none;font-family:Sans"
       x="332.66495"
       y="227.5701"
       id="text4025"
       sodipodi:linespacing="125%"><tspan
         sodipodi:role="line"
         id="tspan4027"
         x="332.66495"
         y="227.5701">3</tspan></text>
    <path
       style="fill:#ff0000;stroke:#ff0000;stroke-width:1px;stroke-linecap:butt;stroke-linejoin:miter;stroke-opacity:1"
       d="m 267.5,227.23718 c -0.875,1.5 -2.375,11.875 -2.375,11.875"
       id="path4029"
       inkscape:connector-curvature="0" />
    <path
       style="fill:#ff0000;stroke:#ff0000;stroke-width:1px;stroke-linecap:butt;stroke-linejoin:miter;stroke-opacity:1"
       d="m 273,226.36218 15,41"
       id="path4031"
       inkscape:connector-curvature="0" />
    <path
       style="fill:#ff0000;stroke:#ff0000;stroke-width:1px;stroke-linecap:butt;stroke-linejoin:miter;stroke-opacity:1"
       d="m 277,223.98718 13.375,11.25 0,0"
       id="path4033"
       inkscape:connector-curvature="0" />
    <path
       style="fill:none;stroke:#ff0000;stroke-width:1px;stroke-linecap:butt;stroke-linejoin:miter;stroke-opacity:1"
       d="m 281,218.73718 c 39.125,12.375 52.5,33.5 52.5,33.5 l 0,0"
       id="path4035"
       inkscape:connector-curvature="0" />
    <path
       style="fill:#0000ff;stroke:#0000ff;stroke-width:3.79999995;stroke-linecap:butt;stroke-linejoin:miter;stroke-miterlimit:4;stroke-opacity:1;stroke-dasharray:none"
       d="m 280.5,212.36218 13.5,-6.5"
       id="path4037"
       inkscape:connector-curvature="0" />
    <path
       style="fill:none;stroke:#0000ff;stroke-width:1.70000005;stroke-linecap:butt;stroke-linejoin:miter;stroke-miterlimit:4;stroke-opacity:1;stroke-dasharray:none"
       d="m 276,204.86218 c 37,-29 43.06875,-18.71105 43.06875,-18.71105 l 15.75657,25.6572 0.67468,-0.44615 0,0 -0.5,0"
       id="path4039"
       inkscape:connector-curvature="0"
       sodipodi:nodetypes="cccccc" />
    <path
       transform="matrix(0.95900284,0,0,0.94879876,-4.60117,87.331002)"
       d="m 230,162.36218 a 70,70 0 1 1 -140,0 70,70 0 1 1 140,0 z"
       sodipodi:ry="70"
       sodipodi:rx="70"
       sodipodi:cy="162.36218"
       sodipodi:cx="160"
       id="path4041"
       style="fill:none;stroke:#000000;stroke-width:1px;stroke-linecap:butt;stroke-linejoin:miter;stroke-opacity:1"
       sodipodi:type="arc" />
    <path
       transform="matrix(0.99609672,0,0,1.2094066,-13.41139,121.12127)"
       d="m 145,77.362183 a 12.5,10 0 1 1 -25,0 12.5,10 0 1 1 25,0 z"
       sodipodi:ry="10"
       sodipodi:rx="12.5"
       sodipodi:cy="77.362183"
       sodipodi:cx="132.5"
       id="path4043"
       style="fill:#d4aa00;stroke:#000000"
       sodipodi:type="arc" />
    <path
       transform="matrix(0.99609672,0,0,1.2094066,23.5529,109.51416)"
       d="m 145,77.362183 a 12.5,10 0 1 1 -25,0 12.5,10 0 1 1 25,0 z"
       sodipodi:ry="10"
       sodipodi:rx="12.5"
       sodipodi:cy="77.362183"
       sodipodi:cx="132.5"
       id="path4045"
       style="fill:#ffd42a;stroke:#000000"
       sodipodi:type="arc" />
    <path
       transform="matrix(0.99609672,0,0,1.2094066,54.08862,129.87135)"
       d="m 145,77.362183 a 12.5,10 0 1 1 -25,0 12.5,10 0 1 1 25,0 z"
       sodipodi:ry="10"
       sodipodi:rx="12.5"
       sodipodi:cy="77.362183"
       sodipodi:cx="132.5"
       id="path4047"
       style="fill:#ffe680;stroke:#000000"
       sodipodi:type="arc" />
    <path
       transform="matrix(0.99609672,0,0,1.2094066,-20.73281,157.37135)"
       d="m 145,77.362183 a 12.5,10 0 1 1 -25,0 12.5,10 0 1 1 25,0 z"
       sodipodi:ry="10"
       sodipodi:rx="12.5"
       sodipodi:cy="77.362183"
       sodipodi:cx="132.5"
       id="path4049"
       style="fill:#b3b3b3;stroke:#000000"
       sodipodi:type="arc" />
    <path
       transform="matrix(0.99609672,0,0,1.2094066,12.66005,184.5142)"
       d="m 145,77.362183 a 12.5,10 0 1 1 -25,0 12.5,10 0 1 1 25,0 z"
       sodipodi:ry="10"
       sodipodi:rx="12.5"
       sodipodi:cy="77.362183"
       sodipodi:cx="132.5"
       id="path4051"
       style="fill:#999999;stroke:#000000"
       sodipodi:type="arc" />
    <path
       transform="matrix(0.99609672,0,0,1.2094066,18.91005,149.33563)"
       d="m 145,77.362183 a 12.5,10 0 1 1 -25,0 12.5,10 0 1 1 25,0 z"
       sodipodi:ry="10"
       sodipodi:rx="12.5"
       sodipodi:cy="77.362183"
       sodipodi:cx="132.5"
       id="path4053"
       style="fill:#999999;stroke:#000000"
       sodipodi:type="arc" />
    <path
       transform="matrix(0.99609672,0,0,1.2094066,53.91005,171.12135)"
       d="m 145,77.362183 a 12.5,10 0 1 1 -25,0 12.5,10 0 1 1 25,0 z"
       sodipodi:ry="10"
       sodipodi:rx="12.5"
       sodipodi:cy="77.362183"
       sodipodi:cx="132.5"
       id="path4055"
       style="fill:#999999;stroke:#000000"
       sodipodi:type="arc" />
    <text
       sodipodi:linespacing="125%"
       id="text4057"
       y="218.79968"
       x="114.125"
       style="font-size:12px;font-style:normal;font-weight:normal;line-height:125%;letter-spacing:0px;word-spacing:0px;fill:#000000;fill-opacity:1;stroke:none;font-family:Sans"
       xml:space="preserve"><tspan
         y="218.79968"
         x="114.125"
         id="tspan4059"
         sodipodi:role="line">1</tspan></text>
    <text
       sodipodi:linespacing="125%"
       id="text4061"
       y="207.11121"
       x="152.07715"
       style="font-size:12px;font-style:normal;font-weight:normal;line-height:125%;letter-spacing:0px;word-spacing:0px;fill:#000000;fill-opacity:1;stroke:none;font-family:Sans"
       xml:space="preserve"><tspan
         y="207.11121"
         x="152.07715"
         id="tspan4063"
         sodipodi:role="line">2</tspan></text>
    <text
       sodipodi:linespacing="125%"
       id="text4065"
       y="227.5701"
       x="182.66495"
       style="font-size:12px;font-style:normal;font-weight:normal;line-height:125%;letter-spacing:0px;word-spacing:0px;fill:#000000;fill-opacity:1;stroke:none;font-family:Sans"
       xml:space="preserve"><tspan
         y="227.5701"
         x="182.66495"
         id="tspan4067"
         sodipodi:role="line">3</tspan></text>
    <path
       inkscape:connector-curvature="0"
       id="path4069"
       d="m 117.5,227.23718 c -0.875,1.5 -2.375,11.875 -2.375,11.875"
       style="fill:#ff0000;stroke:#ff0000;stroke-width:1px;stroke-linecap:butt;stroke-linejoin:miter;stroke-opacity:1" />
    <path
       inkscape:connector-curvature="0"
       id="path4071"
       d="m 123,226.36218 15,41"
       style="fill:#ff0000;stroke:#ff0000;stroke-width:1px;stroke-linecap:butt;stroke-linejoin:miter;stroke-opacity:1" />
    <path
       inkscape:connector-curvature="0"
       id="path4073"
       d="m 127,223.98718 13.375,11.25 0,0"
       style="fill:#ff0000;stroke:#ff0000;stroke-width:1px;stroke-linecap:butt;stroke-linejoin:miter;stroke-opacity:1" />
    <path
       inkscape:connector-curvature="0"
       id="path4075"
       d="m 131,218.73718 c 39.125,12.375 52.5,33.5 52.5,33.5 l 0,0"
       style="fill:none;stroke:#ff0000;stroke-width:1px;stroke-linecap:butt;stroke-linejoin:miter;stroke-opacity:1" />
    <path
       inkscape:connector-curvature="0"
       id="path4077"
       d="m 130.5,212.36218 13.5,-6.5"
       style="fill:#0000ff;stroke:#0000ff;stroke-width:3.79999995;stroke-linecap:butt;stroke-linejoin:miter;stroke-miterlimit:4;stroke-opacity:1;stroke-dasharray:none" />
    <path
       sodipodi:nodetypes="cccccc"
       inkscape:connector-curvature="0"
       id="path4079"
       d="m 126,204.86218 c 37,-29 43.06875,-18.71105 43.06875,-18.71105 l 15.75657,25.6572 0.67468,-0.44615 0,0 -0.5,0"
       style="fill:none;stroke:#0000ff;stroke-width:1.70000005;stroke-linecap:butt;stroke-linejoin:miter;stroke-miterlimit:4;stroke-opacity:1;stroke-dasharray:none" />
    <path
       style="fill:none;stroke:#0000ff;stroke-width:3;stroke-linecap:butt;stroke-linejoin:miter;stroke-opacity:1;stroke-miterlimit:4;stroke-dasharray:3,3;stroke-dashoffset:0"
       d="m 123,52.362183 c 0,0 91.5,-73 145.5,0"
       id="path4115"
       inkscape:connector-curvature="0" />
    <path
       style="fill:none;stroke:#0000ff;stroke-width:4;stroke-linecap:butt;stroke-linejoin:miter;stroke-opacity:1;stroke-miterlimit:4;stroke-dasharray:4,4;stroke-dashoffset:0"
       d="m 117,51.862183 c 0,0 130.5,-100.5 186.5,-10.5"
       id="path4138"
       inkscape:connector-curvature="0" />
    <path
       style="fill:none;stroke:#000000;stroke-width:1px;stroke-linecap:butt;stroke-linejoin:miter;stroke-opacity:1;marker-start:none;marker-end:url(#Arrow2Mend)"
       d="m 12.5,105.36218 c 0,0 45,-20.499997 51,-0.5"
       id="path4144"
       inkscape:connector-curvature="0" />
  </g>
</svg>
